# xmcd
# 
# Track frame offsets:
#     182
#     20097
#     38410
#     61507
#     81372
#     102455
#     115575
#     137985
#     152680
#     171745
#     188305
# 
# Disc length: 2835
# 
# Revision: 18
# Processed by: cddbd v1.5.2PL0 Copyright (c) Steve Scherf et al.
# Submitted via: fre:ac v1.0.17
# 
DISCID=870b110b
DTITLE=Status Quo - In The Army Now
DYEAR=1986
DGENRE=Rock
TTITLE0=Rollin' Home
TTITLE1=Calling
TTITLE2=In Your Eyes
TTITLE3=Save Me
TTITLE4=In The Army Now
TTITLE5=Dreamin'
TTITLE6=End Of The Line
TTITLE7=Invitation
TTITLE8=Red Sky
TTITLE9=Speechless
TTITLE10=Overdose
EXTD=YEAR: 1986
EXTT0=
EXTT1=
EXTT2=
EXTT3=
EXTT4=
EXTT5=
EXTT6=
EXTT7=
EXTT8=
EXTT9=
EXTT10=
PLAYORDER=
